<?xml version="1.0" encoding="UTF-8"?>
<svg id="Layer_2" data-name="Layer 2" xmlns="http://www.w3.org/2000/svg" viewBox="0 0 347.46 449.3">
  <defs>
    <style>
      .cls-1 {
        fill: none;
        stroke: #231f20;
        stroke-miterlimit: 10;
      }
    </style>
  </defs>
  <g id="Layer_1-2" data-name="Layer 1">
    <polygon class="cls-1" points="314.77 418.06 245.58 306.65 268.18 272.2 346.77 397.83 314.77 418.06"/>
    <polyline class="cls-1" points="192.7 306.72 260.25 198.43 297.44 221.98 268.18 272.2 192.7 391.43 192.51 356.09 192.25 306.31 191.29 219.19 219.21 263.12"/>
    <line class="cls-1" x1="208.38" y1="365.74" x2="192.51" y2="356.09"/>
    <polyline class="cls-1" points="241.44 227.34 199.21 158.38 200.44 133.19 200.62 51.12 197.66 45.41 196.1 42.23 194.7 40.08 192.18 37.78 192.18 36.45 193.66 36.21 194.49 34.54 195.05 33.54 195.38 32.1 195.71 30.32 195.88 28.82 195.77 27.71 195.94 25.6 195.94 23.99 196.05 22.32 195.94 21.04 195.38 19.88 194.99 18.6 194.33 16.99 193.77 15.76 192.99 14.65 192.18 13.99 191.33 13.26 190.05 12.38 188.99 12.38 157.01 12.38 155.62 13.63 154.73 14.47 153.68 15.91 153.01 17.13 152.23 18.86 151.84 20.3 151.84 21.52 151.84 22.69 151.84 26.08 151.84 27.8 151.84 29.86 152.34 31.47 152.73 32.91 153.62 34.75 154.51 36.13 155.62 36.8 154.4 38.08 153.07 39.58 151.84 41.58 149.73 44.86 148.79 46.75 148.07 48.97 147.68 51.13 146.79 129.19 148.46 158.52 105.71 228.49 127.05 263.38 155.94 216.77 156.38 309.38 128.01 264.41 127.3 263.52"/>
    <polyline class="cls-1" points="105.45 227.99 87.24 198.43 49.91 221.38 79.83 271.31 155.24 393.08 156.38 309.38"/>
    <polyline class="cls-1" points="139.76 365.74 155.75 356.09 138.75 366.45"/>
    <polyline class="cls-1" points="79.22 271.05 .69 398.2 32.52 418.09 101.94 307"/>
    <polyline class="cls-1" points="155.75 394.83 156.08 401.17 157.46 402.72 159.3 404.28 161.3 405.56 163.24 407.06 164.91 407.78 183.24 407.78 184.26 406.65 188.1 403.79 191.29 401.31 191.51 392.34 192.18 392.34"/>
    <polyline class="cls-1" points="155.62 36.8 158.71 36.8 160.71 35.49 164.38 34.05 168.38 34.05 171.83 34.05 174.71 34.05 177.27 34.05 179.86 34.05 182.46 34.05 184.83 34.73 186.9 35.92 189.05 37.32 192.18 37.32"/>
    <line class="cls-1" x1="155.8" y1="395.05" x2="155.58" y2="393.91"/>
    <path class="cls-1" d="M160.01,409.7h27.69v2.56s-.67,4.3-.89,4.81-1.93,4.22-1.93,4.22l-2.59,6-4,6.22-2.96,4.37h-2.37l-2.74-3.26-3.78-5.04-1.85-2.96-3.04-4.67-1.55-3.33v-8.94Z"/>
    <line class="cls-1" x1="199.21" y1="158.38" x2="191.29" y2="219.19"/>
    <line class="cls-1" x1="148.46" y1="158.52" x2="155.94" y2="216.77"/>
    <line class="cls-1" x1="155.97" y1="339.34" x2="191.29" y2="339.34"/>
    <rect class="cls-1" x="170.15" y="376.45" width="6.89" height="7.56"/>
    <polyline class="cls-1" points="156.38 357.97 166.96 358.34 167.56 359.45 167.93 361.75 167.93 363.75 167.33 365.31 166.22 365.74 156.38 365.74"/>
    <polyline class="cls-1" points="192.35 357.97 180.99 358.34 180.35 359.45 179.96 361.75 179.96 363.75 180.59 365.31 181.78 365.74 192.35 365.74"/>
    <line class="cls-1" x1="158.32" y1="403.45" x2="188.1" y2="403.79"/>
    <line class="cls-1" x1="172.57" y1="408.09" x2="172.57" y2="409.59"/>
    <line class="cls-1" x1="175.01" y1="407.65" x2="175.01" y2="409.59"/>
    <rect class="cls-1" x="168.31" y="181.06" width="10.89" height="10.89"/>
    <line class="cls-1" x1="147.08" y1="134.27" x2="200.38" y2="134.27"/>
    <polyline class="cls-1" points="169.53 156.94 177.97 156.94 177.97 150.06 169.53 150.06 169.53 156.39"/>
    <polyline class="cls-1" points="187.68 35.69 189.4 34.05 190.79 32.83 191.29 31.39 191.57 15.11 190.73 13.28 190.34 12.58"/>
    <polyline class="cls-1" points="161.12 35.72 158.75 34.08 156.84 32.87 156.15 31.42 155.77 15.15 156.91 13.31 157.46 12.61"/>
    <polyline class="cls-1" points="160.01 419.28 158.71 423.8 157.31 427.72 154.71 434.54 153.01 439.2 152.34 441.72 152.79 444.02 154.12 446.54 155.8 447.06 156.18 444.24 157.16 439.72 160.01 434.91 160.94 433.17 160.64 436.17 159.46 439.5 158.32 443.13 157.16 445.87 157.01 447.06 157.01 447.57 158.32 446.76 159.16 445.35 160.64 443.35 161.83 441.72 162.27 440.24 163.01 436.83 163.75 434.09 163.75 431.43 164.49 427.57 164.59 426.64"/>
    <polygon class="cls-1" points="187.01 417.59 191.62 423.37 194.62 426.93 198.68 431.87 204.96 439.59 207.34 442.93 210.57 447.57 210.34 443.15 210.12 441.98 187.71 412.54 187.01 417.59"/>
    <rect class="cls-1" x="182.57" y=".5" width="2.44" height="11.88"/>
  </g>
</svg>